<mxfile host="app.diagrams.net" modified="2020-09-01T12:56:45.975Z" agent="5.0 (Macintosh; Intel Mac OS X 10_15_3) AppleWebKit/537.36 (KHTML, like Gecko) Chrome/84.0.4147.135 Safari/537.36" etag="k49ujrDmhUBf77DuF6v9" version="13.6.6" type="github">
  <diagram id="Qp3tWyPZcoEZTAgaxoHX" name="Page-1">
    <mxGraphModel dx="1298" dy="736" grid="1" gridSize="10" guides="1" tooltips="1" connect="1" arrows="1" fold="1" page="1" pageScale="1" pageWidth="827" pageHeight="1500" math="0" shadow="0">
      <root>
        <mxCell id="0" />
        <mxCell id="1" parent="0" />
        <mxCell id="rV0cjZLge9Iy8ecDyvLp-1" value="&lt;font style=&quot;font-size: 25px&quot;&gt;S — K&lt;/font&gt;" style="text;html=1;strokeColor=none;fillColor=none;align=center;verticalAlign=middle;whiteSpace=wrap;rounded=0;" vertex="1" parent="1">
          <mxGeometry x="210" y="190" width="80" height="40" as="geometry" />
        </mxCell>
        <mxCell id="rV0cjZLge9Iy8ecDyvLp-2" value="" style="endArrow=none;html=1;" edge="1" parent="1">
          <mxGeometry width="50" height="50" relative="1" as="geometry">
            <mxPoint x="195" y="230" as="sourcePoint" />
            <mxPoint x="305" y="230" as="targetPoint" />
          </mxGeometry>
        </mxCell>
        <mxCell id="rV0cjZLge9Iy8ecDyvLp-3" value="&lt;span style=&quot;font-size: 25px&quot;&gt;x&lt;/span&gt;" style="text;html=1;strokeColor=none;fillColor=none;align=center;verticalAlign=middle;whiteSpace=wrap;rounded=0;" vertex="1" parent="1">
          <mxGeometry x="210" y="230" width="80" height="40" as="geometry" />
        </mxCell>
        <mxCell id="rV0cjZLge9Iy8ecDyvLp-4" value="&lt;font style=&quot;font-size: 25px&quot;&gt;S&lt;/font&gt;" style="text;html=1;strokeColor=none;fillColor=none;align=center;verticalAlign=middle;whiteSpace=wrap;rounded=0;" vertex="1" parent="1">
          <mxGeometry x="505" y="190" width="80" height="40" as="geometry" />
        </mxCell>
        <mxCell id="rV0cjZLge9Iy8ecDyvLp-5" value="" style="endArrow=none;html=1;" edge="1" parent="1">
          <mxGeometry width="50" height="50" relative="1" as="geometry">
            <mxPoint x="490" y="230" as="sourcePoint" />
            <mxPoint x="600" y="230" as="targetPoint" />
          </mxGeometry>
        </mxCell>
        <mxCell id="rV0cjZLge9Iy8ecDyvLp-6" value="&lt;span style=&quot;font-size: 25px&quot;&gt;y&lt;/span&gt;" style="text;html=1;strokeColor=none;fillColor=none;align=center;verticalAlign=middle;whiteSpace=wrap;rounded=0;" vertex="1" parent="1">
          <mxGeometry x="505" y="230" width="80" height="40" as="geometry" />
        </mxCell>
        <mxCell id="rV0cjZLge9Iy8ecDyvLp-7" value="&lt;font style=&quot;font-size: 25px&quot;&gt;tA =&lt;/font&gt;" style="text;html=1;strokeColor=none;fillColor=none;align=center;verticalAlign=middle;whiteSpace=wrap;rounded=0;" vertex="1" parent="1">
          <mxGeometry x="120" y="210" width="80" height="40" as="geometry" />
        </mxCell>
        <mxCell id="rV0cjZLge9Iy8ecDyvLp-8" value="&lt;font style=&quot;font-size: 25px&quot;&gt;tB =&lt;/font&gt;" style="text;html=1;strokeColor=none;fillColor=none;align=center;verticalAlign=middle;whiteSpace=wrap;rounded=0;" vertex="1" parent="1">
          <mxGeometry x="410" y="210" width="80" height="40" as="geometry" />
        </mxCell>
        <mxCell id="rV0cjZLge9Iy8ecDyvLp-9" value="&lt;font style=&quot;font-size: 25px&quot;&gt;tA = tB&lt;/font&gt;" style="text;html=1;strokeColor=none;fillColor=none;align=center;verticalAlign=middle;whiteSpace=wrap;rounded=0;" vertex="1" parent="1">
          <mxGeometry x="280" y="330" width="170" height="40" as="geometry" />
        </mxCell>
        <mxCell id="rV0cjZLge9Iy8ecDyvLp-13" value="&lt;font style=&quot;font-size: 25px&quot;&gt;S — K&lt;/font&gt;" style="text;html=1;strokeColor=none;fillColor=none;align=center;verticalAlign=middle;whiteSpace=wrap;rounded=0;" vertex="1" parent="1">
          <mxGeometry x="255" y="429" width="80" height="40" as="geometry" />
        </mxCell>
        <mxCell id="rV0cjZLge9Iy8ecDyvLp-14" value="" style="endArrow=none;html=1;" edge="1" parent="1">
          <mxGeometry width="50" height="50" relative="1" as="geometry">
            <mxPoint x="240" y="469" as="sourcePoint" />
            <mxPoint x="350" y="469" as="targetPoint" />
          </mxGeometry>
        </mxCell>
        <mxCell id="rV0cjZLge9Iy8ecDyvLp-15" value="&lt;span style=&quot;font-size: 25px&quot;&gt;x&lt;/span&gt;" style="text;html=1;strokeColor=none;fillColor=none;align=center;verticalAlign=middle;whiteSpace=wrap;rounded=0;" vertex="1" parent="1">
          <mxGeometry x="255" y="469" width="80" height="40" as="geometry" />
        </mxCell>
        <mxCell id="rV0cjZLge9Iy8ecDyvLp-16" value="&lt;font style=&quot;font-size: 25px&quot;&gt;S&lt;/font&gt;" style="text;html=1;strokeColor=none;fillColor=none;align=center;verticalAlign=middle;whiteSpace=wrap;rounded=0;" vertex="1" parent="1">
          <mxGeometry x="415" y="429" width="80" height="40" as="geometry" />
        </mxCell>
        <mxCell id="rV0cjZLge9Iy8ecDyvLp-17" value="" style="endArrow=none;html=1;" edge="1" parent="1">
          <mxGeometry width="50" height="50" relative="1" as="geometry">
            <mxPoint x="400" y="469" as="sourcePoint" />
            <mxPoint x="510" y="469" as="targetPoint" />
          </mxGeometry>
        </mxCell>
        <mxCell id="rV0cjZLge9Iy8ecDyvLp-18" value="&lt;span style=&quot;font-size: 25px&quot;&gt;y&lt;/span&gt;" style="text;html=1;strokeColor=none;fillColor=none;align=center;verticalAlign=middle;whiteSpace=wrap;rounded=0;" vertex="1" parent="1">
          <mxGeometry x="415" y="469" width="80" height="40" as="geometry" />
        </mxCell>
        <mxCell id="rV0cjZLge9Iy8ecDyvLp-19" value="&lt;font style=&quot;font-size: 25px&quot;&gt;=&lt;/font&gt;" style="text;html=1;strokeColor=none;fillColor=none;align=center;verticalAlign=middle;whiteSpace=wrap;rounded=0;" vertex="1" parent="1">
          <mxGeometry x="350" y="449" width="60" height="30" as="geometry" />
        </mxCell>
        <mxCell id="rV0cjZLge9Iy8ecDyvLp-20" value="&lt;font style=&quot;font-size: 25px&quot;&gt;y =&lt;/font&gt;" style="text;html=1;strokeColor=none;fillColor=none;align=center;verticalAlign=middle;whiteSpace=wrap;rounded=0;" vertex="1" parent="1">
          <mxGeometry x="290.5" y="585" width="75" height="50" as="geometry" />
        </mxCell>
        <mxCell id="rV0cjZLge9Iy8ecDyvLp-21" value="&lt;font style=&quot;font-size: 25px&quot;&gt;Sx&lt;/font&gt;" style="text;html=1;strokeColor=none;fillColor=none;align=center;verticalAlign=middle;whiteSpace=wrap;rounded=0;" vertex="1" parent="1">
          <mxGeometry x="374.5" y="570" width="80" height="40" as="geometry" />
        </mxCell>
        <mxCell id="rV0cjZLge9Iy8ecDyvLp-22" value="" style="endArrow=none;html=1;" edge="1" parent="1">
          <mxGeometry width="50" height="50" relative="1" as="geometry">
            <mxPoint x="359.5" y="610" as="sourcePoint" />
            <mxPoint x="469.5" y="610" as="targetPoint" />
          </mxGeometry>
        </mxCell>
        <mxCell id="rV0cjZLge9Iy8ecDyvLp-23" value="&lt;span style=&quot;font-size: 25px&quot;&gt;S - K&lt;/span&gt;" style="text;html=1;strokeColor=none;fillColor=none;align=center;verticalAlign=middle;whiteSpace=wrap;rounded=0;" vertex="1" parent="1">
          <mxGeometry x="374.5" y="610" width="80" height="40" as="geometry" />
        </mxCell>
        <mxCell id="rV0cjZLge9Iy8ecDyvLp-24" value="" style="shape=flexArrow;endArrow=classic;html=1;" edge="1" parent="1" target="rV0cjZLge9Iy8ecDyvLp-9">
          <mxGeometry width="50" height="50" relative="1" as="geometry">
            <mxPoint x="364" y="240" as="sourcePoint" />
            <mxPoint x="440" y="450" as="targetPoint" />
          </mxGeometry>
        </mxCell>
        <mxCell id="rV0cjZLge9Iy8ecDyvLp-25" value="" style="shape=flexArrow;endArrow=classic;html=1;" edge="1" parent="1">
          <mxGeometry width="50" height="50" relative="1" as="geometry">
            <mxPoint x="364.5" y="370" as="sourcePoint" />
            <mxPoint x="364.81818181818176" y="440" as="targetPoint" />
          </mxGeometry>
        </mxCell>
        <mxCell id="rV0cjZLge9Iy8ecDyvLp-26" value="" style="shape=flexArrow;endArrow=classic;html=1;" edge="1" parent="1">
          <mxGeometry width="50" height="50" relative="1" as="geometry">
            <mxPoint x="364.5" y="500" as="sourcePoint" />
            <mxPoint x="364.81818181818176" y="570" as="targetPoint" />
          </mxGeometry>
        </mxCell>
      </root>
    </mxGraphModel>
  </diagram>
</mxfile>
